<svg xmlns="http://www.w3.org/2000/svg" xmlns:xlink="http://www.w3.org/1999/xlink" width="334" zoomAndPan="magnify" viewBox="0 0 250.5 104.999996" height="140" preserveAspectRatio="xMidYMid meet" version="1.0"><defs><g/><clipPath id="5ca60bc06f"><path d="M 12 98 L 119 98 L 119 104.894531 L 12 104.894531 Z M 12 98 " clip-rule="nonzero"/></clipPath></defs><g clip-path="url(#5ca60bc06f)"><path fill="#8a1114" d="M 65.546875 105.105469 C 94.90625 105.105469 118.707031 103.714844 118.707031 102 C 118.707031 100.285156 94.90625 98.898438 65.546875 98.898438 C 36.1875 98.898438 12.382812 100.285156 12.382812 102 C 12.382812 103.714844 36.1875 105.105469 65.546875 105.105469 Z M 65.546875 105.105469 " fill-opacity="0.4" fill-rule="nonzero"/></g><path fill="#263238" d="M 50.023438 20.679688 C 47.890625 22.441406 45.800781 25.277344 47.023438 28.355469 C 48.246094 31.4375 56.074219 31.746094 57.71875 30.480469 C 59.859375 28.835938 57.96875 21.507812 56.300781 21.464844 C 56.175781 18.746094 51.808594 19.207031 50.023438 20.679688 Z M 50.023438 20.679688 " fill-opacity="1" fill-rule="nonzero"/><path fill="#ffb573" d="M 47.035156 50.332031 C 47.035156 50.332031 47.890625 65.945312 48.835938 74.398438 C 48.933594 82.335938 50.757812 100.269531 50.757812 100.269531 L 52.761719 100.269531 C 53.097656 91.371094 55.574219 83.0625 53.929688 75.214844 C 57.769531 59.804688 55.136719 50.34375 55.136719 50.34375 Z M 47.035156 50.332031 " fill-opacity="1" fill-rule="nonzero"/><path fill="#ffb573" d="M 49.214844 50.34375 C 49.214844 50.34375 53.34375 67.660156 54.472656 75.035156 C 55.660156 82.785156 57.433594 97.820312 57.351562 100.261719 L 59.082031 100.261719 C 59.082031 100.261719 61.988281 85.050781 59.296875 75.3125 C 61.515625 53.375 56.042969 50.359375 56.042969 50.359375 Z M 39.320312 30.316406 C 39.191406 29.378906 37.476562 29.300781 37.476562 29.300781 L 36.652344 28.886719 C 36.503906 28.792969 36.339844 28.769531 36.171875 28.804688 C 36 28.84375 35.863281 28.9375 35.765625 29.082031 L 35.492188 29.539062 C 35.410156 29.722656 35.398438 29.914062 35.457031 30.109375 C 35.511719 30.300781 35.628906 30.453125 35.796875 30.5625 L 36.046875 30.746094 C 36.472656 31.046875 36.972656 31.226562 37.492188 31.253906 L 38.253906 31.292969 C 38.421875 31.304688 38.585938 31.285156 38.746094 31.234375 C 38.941406 31.171875 39.09375 31.054688 39.203125 30.878906 C 39.308594 30.707031 39.347656 30.515625 39.3125 30.316406 Z M 39.320312 30.316406 " fill-opacity="1" fill-rule="nonzero"/><path fill="#ffb573" d="M 48.359375 35.785156 C 48.285156 35.863281 48.207031 35.941406 48.125 36.011719 L 47.910156 36.203125 C 47.765625 36.324219 47.617188 36.4375 47.472656 36.550781 C 47.179688 36.765625 46.875 36.972656 46.566406 37.164062 C 45.941406 37.539062 45.289062 37.855469 44.613281 38.117188 C 43.253906 38.648438 41.84375 38.921875 40.382812 38.941406 L 40.257812 38.941406 C 40.058594 38.9375 39.871094 38.898438 39.683594 38.824219 C 39.480469 38.738281 39.296875 38.621094 39.136719 38.464844 C 38.929688 38.261719 38.765625 38.027344 38.640625 37.765625 C 38.46875 37.390625 38.34375 37.007812 38.257812 36.605469 C 38.113281 35.914062 38.023438 35.21875 37.984375 34.515625 C 37.910156 33.167969 37.9375 31.824219 38.066406 30.480469 C 38.082031 30.324219 38.148438 30.195312 38.265625 30.089844 C 38.378906 29.984375 38.515625 29.929688 38.671875 29.925781 C 38.828125 29.925781 38.964844 29.976562 39.082031 30.078125 C 39.199219 30.179688 39.269531 30.308594 39.289062 30.464844 L 39.289062 30.480469 C 39.4375 31.757812 39.605469 33.054688 39.835938 34.296875 C 39.9375 34.898438 40.078125 35.492188 40.253906 36.074219 C 40.328125 36.316406 40.421875 36.542969 40.546875 36.761719 C 40.59375 36.839844 40.644531 36.878906 40.621094 36.851562 C 40.585938 36.8125 40.542969 36.78125 40.492188 36.765625 C 40.445312 36.742188 40.398438 36.730469 40.351562 36.722656 L 40.277344 36.722656 C 40.867188 36.667969 41.449219 36.570312 42.027344 36.433594 C 42.597656 36.289062 43.15625 36.105469 43.699219 35.882812 C 44.242188 35.652344 44.761719 35.378906 45.257812 35.0625 C 45.628906 34.835938 45.980469 34.585938 46.316406 34.3125 L 46.476562 34.179688 L 46.597656 34.074219 L 46.667969 34.011719 C 46.789062 33.90625 46.921875 33.824219 47.074219 33.773438 C 47.226562 33.71875 47.378906 33.695312 47.539062 33.703125 C 47.699219 33.710938 47.851562 33.746094 48 33.8125 C 48.144531 33.878906 48.269531 33.972656 48.382812 34.085938 C 48.492188 34.203125 48.574219 34.335938 48.632812 34.484375 C 48.691406 34.636719 48.71875 34.789062 48.714844 34.949219 C 48.714844 35.109375 48.683594 35.261719 48.621094 35.410156 C 48.558594 35.558594 48.46875 35.6875 48.359375 35.800781 Z M 48.359375 35.785156 " fill-opacity="1" fill-rule="nonzero"/><path fill="#e0e0e0" d="M 49.710938 32.742188 C 47.539062 32.378906 45.265625 33.855469 44.085938 35.054688 C 43.476562 36.886719 45.425781 39.113281 45.425781 39.113281 C 45.425781 39.113281 48.203125 37.40625 49.203125 36.242188 C 50.203125 35.078125 50.960938 32.949219 49.707031 32.742188 Z M 49.710938 32.742188 " fill-opacity="1" fill-rule="nonzero"/><path fill="#263238" d="M 56.425781 50.136719 C 56.425781 50.136719 59.488281 52.308594 60.0625 59.527344 C 60.292969 62.371094 60.707031 73.714844 61.578125 78.59375 C 58.4375 80.835938 49.039062 80.53125 47.570312 79.21875 C 47.984375 69.347656 44.210938 56.253906 46.949219 50.234375 C 51.476562 49.679688 56.425781 50.136719 56.425781 50.136719 Z M 56.425781 50.136719 " fill-opacity="1" fill-rule="nonzero"/><path fill="#000000" d="M 53.324219 70.839844 C 53.363281 66.691406 52.753906 60.984375 50.898438 57.597656 C 51.53125 61.820312 53.324219 70.839844 53.324219 70.839844 Z M 53.324219 70.839844 " fill-opacity="0.2" fill-rule="nonzero"/><path fill="#e0e0e0" d="M 45.511719 36.085938 C 45.511719 38.4375 43.640625 39.671875 45.757812 41.480469 C 45.882812 43.507812 46.03125 47.140625 46.65625 50.453125 C 47.300781 51.347656 52.011719 51.273438 56.902344 50.210938 C 56.265625 47.375 56.5 42.75 58.175781 36.429688 C 58.265625 36.074219 58.28125 35.714844 58.222656 35.355469 C 58.164062 34.992188 58.035156 34.660156 57.835938 34.351562 C 57.636719 34.046875 57.386719 33.789062 57.082031 33.589844 C 56.773438 33.386719 56.441406 33.253906 56.082031 33.191406 C 55.660156 33.117188 55.238281 33.050781 54.816406 33 C 53.285156 32.773438 51.738281 32.660156 50.191406 32.652344 C 49.691406 32.652344 49.175781 32.6875 48.679688 32.71875 C 48.253906 32.746094 47.84375 32.851562 47.453125 33.035156 C 47.066406 33.214844 46.722656 33.464844 46.429688 33.777344 C 46.136719 34.089844 45.910156 34.445312 45.75 34.84375 C 45.589844 35.242188 45.511719 35.65625 45.511719 36.085938 Z M 45.511719 36.085938 " fill-opacity="1" fill-rule="nonzero"/><path fill="#8a1114" d="M 55.511719 40.167969 L 49.765625 41.46875 C 49.65625 41.492188 49.570312 41.550781 49.511719 41.648438 C 49.453125 41.742188 49.433594 41.84375 49.460938 41.953125 L 51.320312 50.164062 C 51.34375 50.273438 51.40625 50.359375 51.5 50.417969 C 51.59375 50.476562 51.695312 50.496094 51.804688 50.472656 L 57.550781 49.171875 C 57.660156 49.144531 57.742188 49.085938 57.804688 48.992188 C 57.863281 48.894531 57.878906 48.792969 57.855469 48.683594 L 55.996094 40.472656 C 55.96875 40.363281 55.910156 40.277344 55.816406 40.21875 C 55.722656 40.160156 55.621094 40.140625 55.511719 40.167969 Z M 50.761719 35.683594 C 50.761719 35.683594 49.828125 36.796875 49.0625 37.054688 L 48.976562 37.601562 C 49.976562 37.476562 50.820312 37.039062 51.503906 36.296875 L 50.757812 35.683594 Z M 48.234375 35.011719 C 48.234375 35.011719 48.195312 36.460938 48.597656 37.167969 L 48.296875 37.640625 C 47.628906 36.878906 47.285156 35.996094 47.261719 34.984375 Z M 48.234375 35.011719 " fill-opacity="1" fill-rule="nonzero"/><path fill="#ffb573" d="M 54.625 27.785156 C 54.257812 29.242188 53.828125 31.933594 54.816406 32.992188 C 54.816406 32.992188 51.136719 33.996094 48.742188 37.289062 C 47.644531 33.828125 50.203125 32.648438 50.203125 32.648438 C 51.878906 32.375 51.898438 31.152344 51.667969 29.976562 Z M 54.625 27.785156 " fill-opacity="1" fill-rule="nonzero"/><path fill="#000000" d="M 53.421875 28.679688 L 51.671875 29.984375 C 51.730469 30.253906 51.761719 30.527344 51.769531 30.804688 C 52.40625 30.761719 53.3125 30.132812 53.417969 29.476562 C 53.464844 29.210938 53.464844 28.945312 53.421875 28.679688 Z M 53.421875 28.679688 " fill-opacity="0.2" fill-rule="nonzero"/><path fill="#ffb573" d="M 56.332031 25.183594 C 55.625 27.546875 55.378906 28.566406 53.898438 29.496094 C 51.664062 30.890625 48.960938 29.453125 48.945312 26.914062 C 48.945312 24.628906 50.089844 21.15625 52.628906 20.777344 C 55.171875 20.398438 57.046875 22.820312 56.332031 25.183594 Z M 56.332031 25.183594 " fill-opacity="1" fill-rule="nonzero"/><path fill="#263238" d="M 54.488281 21.734375 C 53.820312 24.011719 54.394531 26.394531 55.753906 26.667969 C 57.640625 25.964844 57.546875 23.867188 57.066406 22.90625 C 56.582031 21.945312 54.871094 20.417969 54.488281 21.734375 Z M 54.488281 21.734375 " fill-opacity="1" fill-rule="nonzero"/><path fill="#263238" d="M 55.523438 25.828125 C 54.472656 26.175781 54.269531 26.878906 54.269531 26.878906 C 54.269531 26.878906 54.988281 26.371094 55.679688 26.464844 C 55.578125 26.265625 55.527344 26.050781 55.523438 25.828125 Z M 52.898438 24.960938 C 52.851562 25.15625 52.710938 25.289062 52.582031 25.257812 C 52.453125 25.230469 52.386719 25.039062 52.433594 24.84375 C 52.480469 24.648438 52.617188 24.515625 52.746094 24.546875 C 52.875 24.582031 52.933594 24.769531 52.898438 24.960938 Z M 50.464844 24.382812 C 50.417969 24.578125 50.28125 24.710938 50.152344 24.675781 C 50.023438 24.644531 49.953125 24.460938 50 24.261719 C 50.046875 24.066406 50.1875 23.9375 50.316406 23.96875 C 50.445312 24.003906 50.515625 24.1875 50.464844 24.382812 Z M 50.464844 24.382812 " fill-opacity="1" fill-rule="nonzero"/><path fill="#263238" d="M 50.375 23.996094 L 49.933594 23.738281 C 49.933594 23.738281 50.089844 24.167969 50.375 23.996094 Z M 50.375 23.996094 " fill-opacity="1" fill-rule="nonzero"/><path fill="#ed893e" d="M 50.925781 24.703125 C 50.648438 25.105469 50.316406 25.460938 49.933594 25.773438 C 50.113281 25.976562 50.335938 26.078125 50.605469 26.082031 Z M 50.925781 24.703125 " fill-opacity="1" fill-rule="nonzero"/><path fill="#ffb573" d="M 56.34375 27.558594 C 56.035156 27.917969 55.644531 28.101562 55.167969 28.105469 C 54.59375 28.089844 54.496094 27.429688 54.8125 26.890625 C 55.085938 26.402344 55.734375 25.824219 56.234375 26.101562 C 56.730469 26.378906 56.734375 27.113281 56.34375 27.558594 Z M 56.34375 27.558594 " fill-opacity="1" fill-rule="nonzero"/><path fill="#263238" d="M 53.355469 24.125 C 53.324219 24.109375 53.304688 24.085938 53.292969 24.050781 C 53.199219 23.746094 53 23.535156 52.699219 23.421875 C 52.660156 23.410156 52.632812 23.386719 52.617188 23.34375 C 52.605469 23.304688 52.609375 23.269531 52.636719 23.234375 C 52.667969 23.191406 52.707031 23.179688 52.757812 23.195312 C 53.144531 23.328125 53.398438 23.589844 53.519531 23.980469 C 53.546875 24.058594 53.523438 24.105469 53.445312 24.128906 C 53.414062 24.140625 53.386719 24.136719 53.355469 24.125 Z M 49.582031 23.214844 C 49.550781 23.21875 49.523438 23.207031 49.5 23.1875 C 49.445312 23.128906 49.445312 23.074219 49.5 23.019531 C 49.761719 22.714844 50.09375 22.582031 50.496094 22.625 C 50.574219 22.636719 50.609375 22.683594 50.597656 22.761719 C 50.585938 22.839844 50.539062 22.871094 50.464844 22.859375 C 50.144531 22.828125 49.882812 22.933594 49.675781 23.175781 C 49.652344 23.203125 49.621094 23.21875 49.582031 23.214844 Z M 52.800781 24.578125 L 52.359375 24.316406 C 52.359375 24.316406 52.515625 24.75 52.804688 24.578125 Z M 52.800781 24.578125 " fill-opacity="1" fill-rule="nonzero"/><path fill="#ffb573" d="M 52.660156 44.042969 L 50.464844 43.617188 L 50.714844 46.136719 C 50.714844 46.136719 52.359375 46.066406 53.296875 45.316406 L 53.382812 44.988281 C 53.28125 44.441406 53.160156 44.242188 52.660156 44.042969 Z M 52.660156 44.042969 " fill-opacity="1" fill-rule="nonzero"/><path fill="#ffb573" d="M 49.148438 44.695312 L 49.402344 45.761719 C 49.441406 45.917969 49.527344 46.042969 49.664062 46.132812 C 49.800781 46.226562 49.949219 46.257812 50.109375 46.234375 L 50.722656 46.136719 L 50.476562 43.617188 L 49.542969 43.957031 C 49.394531 44.011719 49.28125 44.109375 49.203125 44.25 C 49.128906 44.390625 49.109375 44.539062 49.148438 44.695312 Z M 57.566406 35.035156 C 58.230469 36.3125 58.8125 37.628906 59.304688 38.980469 C 59.554688 39.660156 59.785156 40.351562 59.972656 41.0625 C 60.175781 41.796875 60.3125 42.550781 60.382812 43.3125 C 60.398438 43.511719 60.40625 43.71875 60.410156 43.925781 L 60.410156 44.117188 C 60.386719 44.359375 60.308594 44.578125 60.179688 44.785156 C 60.054688 44.980469 59.886719 45.148438 59.691406 45.28125 C 59.453125 45.441406 59.191406 45.554688 58.914062 45.628906 C 58.703125 45.6875 58.492188 45.730469 58.277344 45.761719 C 57.527344 45.855469 56.773438 45.886719 56.019531 45.847656 C 54.59375 45.78125 53.175781 45.613281 51.773438 45.335938 C 51.617188 45.3125 51.488281 45.238281 51.386719 45.109375 C 51.289062 44.984375 51.246094 44.839844 51.261719 44.679688 C 51.273438 44.519531 51.339844 44.386719 51.460938 44.28125 C 51.578125 44.171875 51.71875 44.121094 51.878906 44.121094 C 53.25 44.097656 54.636719 44.0625 55.972656 43.960938 C 56.613281 43.917969 57.246094 43.824219 57.871094 43.6875 C 58 43.65625 58.125 43.621094 58.246094 43.570312 C 58.308594 43.554688 58.363281 43.527344 58.414062 43.484375 C 58.359375 43.515625 58.316406 43.558594 58.285156 43.613281 C 58.226562 43.703125 58.191406 43.804688 58.179688 43.910156 C 58.179688 43.929688 58.179688 43.949219 58.179688 43.96875 C 58.179688 43.828125 58.15625 43.691406 58.136719 43.539062 C 57.894531 42.265625 57.523438 41.03125 57.019531 39.835938 C 56.515625 38.585938 55.96875 37.359375 55.375 36.152344 L 55.375 36.128906 C 55.253906 35.832031 55.25 35.535156 55.363281 35.234375 C 55.476562 34.933594 55.675781 34.710938 55.960938 34.566406 C 56.246094 34.421875 56.542969 34.394531 56.851562 34.480469 C 57.160156 34.566406 57.398438 34.746094 57.566406 35.015625 Z M 57.566406 35.035156 " fill-opacity="1" fill-rule="nonzero"/><path fill="#e0e0e0" d="M 56.222656 33.277344 C 57.796875 33.566406 58.496094 34.980469 59.632812 37.796875 C 59.285156 39.695312 56.5 40.691406 56.5 40.691406 C 56.5 40.691406 54.898438 37.855469 54.578125 36.351562 C 54.261719 34.84375 54.640625 32.980469 56.222656 33.277344 Z M 56.222656 33.277344 " fill-opacity="1" fill-rule="nonzero"/><path fill="#263238" d="M 52.902344 100.289062 C 52.871094 100.203125 52.8125 100.167969 52.722656 100.179688 L 50.863281 100.148438 C 50.667969 100.136719 50.488281 100.175781 50.316406 100.269531 C 49.453125 100.804688 48.519531 101.140625 47.511719 101.269531 C 47.117188 101.328125 47.296875 101.996094 48.230469 102.007812 C 49.765625 102.023438 50.046875 101.90625 51.359375 101.921875 C 52.480469 101.933594 51.945312 101.984375 52.835938 102.007812 C 53.050781 102.007812 53.226562 101.871094 53.199219 101.730469 Z M 59.316406 100.289062 C 59.285156 100.203125 59.226562 100.167969 59.136719 100.179688 L 57.621094 100.148438 C 57.425781 100.136719 57.242188 100.175781 57.070312 100.269531 C 56.523438 100.648438 56.597656 101.089844 55.347656 101.269531 C 54.953125 101.328125 55.148438 101.996094 56.082031 102.007812 C 57.621094 102.023438 57.527344 101.921875 58.152344 101.921875 C 58.777344 101.921875 58.394531 101.984375 59.285156 102.007812 C 59.5 102.007812 59.671875 101.871094 59.640625 101.730469 Z M 59.316406 100.289062 " fill-opacity="1" fill-rule="nonzero"/><path fill="#fafafa" d="M 49.746094 36.105469 C 50.527344 36.136719 51.953125 36.777344 52.414062 37.460938 C 53.058594 36.789062 55.585938 35.230469 55.632812 33.113281 C 55.316406 32.808594 54.941406 32.617188 54.511719 32.539062 C 54.511719 32.539062 51.136719 34.167969 49.75 36.105469 Z M 48.488281 35.996094 C 48.488281 35.996094 48.273438 34.289062 50.34375 32.628906 C 50.132812 32.457031 49.316406 32.652344 49.316406 32.652344 C 49.316406 32.652344 46.902344 33.691406 46.972656 36.378906 C 47.425781 36.046875 47.929688 35.917969 48.488281 35.996094 Z M 48.488281 35.996094 " fill-opacity="1" fill-rule="nonzero"/><path fill="#8a1114" d="M 48.179688 36.71875 C 47.878906 36.859375 47.761719 37.832031 48.179688 38.0625 C 48.597656 38.289062 48.554688 37.359375 48.796875 37.039062 C 49.039062 36.722656 48.703125 36.476562 48.179688 36.71875 Z M 48.179688 36.71875 " fill-opacity="1" fill-rule="nonzero"/><path fill="#8a1114" d="M 48.546875 37.097656 C 48.332031 37.371094 48.609375 38.304688 49.070312 38.300781 C 49.53125 38.300781 49.132812 37.480469 49.222656 37.074219 C 49.3125 36.667969 48.910156 36.617188 48.546875 37.097656 Z M 48.546875 37.097656 " fill-opacity="1" fill-rule="nonzero"/><path fill="#8a1114" d="M 48.609375 37.792969 C 48.097656 37 48.0625 41.175781 49.304688 42.820312 C 49.222656 41.199219 50.089844 38.902344 48.609375 37.792969 Z M 48.609375 37.792969 " fill-opacity="1" fill-rule="nonzero"/><path fill="#8a1114" d="M 48.5625 37.757812 C 48.335938 36.949219 47.191406 40.480469 47.824219 42.207031 C 48.183594 40.8125 49.527344 39.089844 48.5625 37.757812 Z M 48.5625 37.757812 " fill-opacity="1" fill-rule="nonzero"/><path fill="#263238" d="M 52.386719 26.835938 C 52.503906 26.78125 52.621094 26.722656 52.726562 26.648438 C 52.75 26.628906 52.753906 26.605469 52.742188 26.578125 C 52.738281 26.570312 52.734375 26.5625 52.726562 26.554688 C 52.699219 26.519531 52.667969 26.515625 52.628906 26.539062 C 52.109375 26.890625 51.546875 26.972656 50.945312 26.785156 C 50.929688 26.777344 50.910156 26.777344 50.894531 26.78125 C 50.875 26.789062 50.863281 26.800781 50.855469 26.820312 C 50.839844 26.863281 50.855469 26.890625 50.898438 26.90625 C 51.402344 27.074219 51.898438 27.050781 52.386719 26.835938 Z M 52.386719 26.835938 " fill-opacity="1" fill-rule="nonzero"/><path fill="#8a1114" d="M 44.429688 28.769531 L 30.421875 28.769531 L 30.421875 29.222656 L 44.429688 29.222656 Z M 44.09375 29.222656 L 30.753906 29.222656 L 31.339844 29.542969 L 43.507812 29.542969 Z M 44.09375 29.222656 " fill-opacity="1" fill-rule="nonzero"/><path fill="#000000" d="M 44.09375 29.222656 L 30.753906 29.222656 L 31.339844 29.542969 L 43.507812 29.542969 Z M 44.09375 29.222656 " fill-opacity="0.2" fill-rule="nonzero"/><path fill="#263238" d="M 34.910156 16.574219 C 34.824219 16.574219 34.75 16.542969 34.691406 16.484375 C 34.628906 16.421875 34.601562 16.351562 34.597656 16.265625 L 34.597656 15.226562 C 34.601562 15.140625 34.628906 15.070312 34.691406 15.007812 C 34.75 14.949219 34.824219 14.917969 34.910156 14.917969 C 34.992188 14.917969 35.066406 14.949219 35.128906 15.007812 C 35.1875 15.070312 35.21875 15.140625 35.21875 15.226562 L 35.21875 16.265625 C 35.21875 16.351562 35.1875 16.421875 35.125 16.484375 C 35.066406 16.542969 34.992188 16.574219 34.910156 16.574219 Z M 34.910156 16.574219 " fill-opacity="1" fill-rule="nonzero"/><path fill="#263238" d="M 35.40625 15.164062 L 35.40625 15.027344 C 35.40625 14.867188 35.328125 14.785156 35.167969 14.785156 L 34.652344 14.785156 C 34.492188 14.785156 34.410156 14.867188 34.410156 15.027344 L 34.410156 15.164062 C 34.410156 15.296875 34.519531 15.40625 34.652344 15.40625 L 35.167969 15.40625 C 35.328125 15.40625 35.410156 15.324219 35.410156 15.164062 Z M 35.40625 15.164062 " fill-opacity="1" fill-rule="nonzero"/><path fill="#8a1114" d="M 35.40625 18.832031 L 35.40625 15.867188 C 35.40625 15.789062 35.367188 15.746094 35.285156 15.746094 L 34.53125 15.746094 C 34.453125 15.746094 34.414062 15.789062 34.414062 15.867188 L 34.414062 18.832031 C 34.414062 19.304688 34.238281 19.699219 33.882812 20.011719 C 33.53125 20.328125 33.355469 20.71875 33.355469 21.191406 L 33.355469 28.796875 L 36.460938 28.796875 L 36.460938 21.191406 C 36.460938 20.71875 36.285156 20.328125 35.933594 20.011719 C 35.582031 19.695312 35.40625 19.304688 35.40625 18.832031 Z M 35.40625 18.832031 " fill-opacity="1" fill-rule="nonzero"/><path fill="#e0e0e0" d="M 36.460938 22.09375 L 34.410156 22.09375 L 34.410156 27.007812 L 36.460938 27.007812 Z M 36.460938 22.09375 " fill-opacity="1" fill-rule="nonzero"/><path fill="#8a1114" d="M 39.371094 28.769531 L 39.003906 28.769531 C 39.125 28.777344 39.25 28.777344 39.371094 28.769531 Z M 41.605469 28.769531 L 41.234375 28.769531 C 41.359375 28.777344 41.484375 28.777344 41.605469 28.769531 Z M 41.605469 28.769531 " fill-opacity="1" fill-rule="nonzero"/><path fill="#8a1114" d="M 38.875 22.96875 L 38.875 24.21875 C 38.875 25.210938 39.441406 26.035156 40.15625 26.136719 L 40.15625 28.328125 C 40.15625 28.667969 39.828125 28.761719 39.574219 28.785156 L 41.035156 28.785156 C 40.777344 28.761719 40.449219 28.667969 40.449219 28.328125 L 40.449219 26.136719 C 41.164062 26.039062 41.730469 25.210938 41.730469 24.214844 L 41.730469 22.96875 Z M 38.875 22.96875 " fill-opacity="0.2" fill-rule="nonzero"/><path fill="#263238" d="M 55.867188 21.796875 C 54.769531 22.261719 51.09375 22.40625 49.65625 22.09375 C 51.144531 19.988281 54.488281 19.371094 55.867188 21.796875 Z M 59.324219 29.308594 C 59.300781 29.308594 59.28125 29.300781 59.269531 29.28125 C 59.230469 29.230469 58.421875 28.042969 58.40625 24.855469 C 58.40625 23.527344 58 22.457031 57.308594 21.917969 C 56.925781 21.597656 56.492188 21.5 56.007812 21.621094 C 55.988281 21.625 55.972656 21.621094 55.957031 21.613281 C 55.929688 21.59375 55.917969 21.570312 55.925781 21.542969 C 55.929688 21.511719 55.949219 21.492188 55.976562 21.488281 C 56.5 21.359375 56.972656 21.46875 57.390625 21.804688 C 58.117188 22.375 58.539062 23.484375 58.546875 24.851562 C 58.5625 27.988281 59.371094 29.191406 59.371094 29.203125 C 59.378906 29.21875 59.382812 29.234375 59.378906 29.253906 C 59.378906 29.273438 59.367188 29.289062 59.351562 29.296875 C 59.34375 29.304688 59.332031 29.308594 59.324219 29.308594 Z M 79.054688 13.167969 C 79.816406 14.214844 79.816406 15.847656 79.554688 16.730469 C 78.183594 16.109375 78.398438 14.320312 78.398438 14.320312 Z M 79.054688 13.167969 " fill-opacity="1" fill-rule="nonzero"/><path fill="#e0e0e0" d="M 83.152344 26.132812 L 83.941406 27 L 84.765625 27.882812 C 85.304688 28.464844 85.859375 29.03125 86.425781 29.585938 C 86.699219 29.859375 86.972656 30.132812 87.269531 30.375 C 87.5625 30.617188 87.816406 30.875 88.105469 31.097656 C 88.390625 31.316406 88.652344 31.515625 88.90625 31.6875 C 89.097656 31.816406 89.300781 31.929688 89.511719 32.027344 L 89.089844 31.960938 C 88.960938 31.945312 88.84375 31.972656 88.734375 32.039062 C 88.734375 32.039062 88.800781 32.039062 88.894531 31.984375 C 89.148438 31.828125 89.382812 31.644531 89.597656 31.4375 C 90.160156 30.902344 90.683594 30.332031 91.167969 29.726562 C 91.699219 29.082031 92.214844 28.425781 92.710938 27.753906 C 93.21875 27.074219 93.722656 26.386719 94.222656 25.699219 L 94.246094 25.671875 C 94.429688 25.433594 94.664062 25.28125 94.953125 25.214844 C 95.246094 25.148438 95.523438 25.183594 95.789062 25.316406 C 96.054688 25.449219 96.246094 25.65625 96.367188 25.929688 C 96.484375 26.203125 96.503906 26.480469 96.421875 26.765625 C 96.140625 27.632812 95.820312 28.484375 95.457031 29.320312 C 95.09375 30.160156 94.691406 30.980469 94.25 31.785156 C 93.785156 32.644531 93.246094 33.453125 92.636719 34.21875 C 92.277344 34.671875 91.871094 35.082031 91.421875 35.449219 C 91.125 35.6875 90.800781 35.890625 90.453125 36.050781 C 89.9375 36.289062 89.394531 36.402344 88.828125 36.386719 C 88.722656 36.382812 88.621094 36.367188 88.519531 36.34375 L 88.40625 36.320312 C 87.800781 36.175781 87.226562 35.960938 86.675781 35.675781 C 86.214844 35.441406 85.773438 35.179688 85.34375 34.886719 C 84.5625 34.363281 83.820312 33.785156 83.113281 33.160156 C 82.4375 32.5625 81.785156 31.941406 81.160156 31.292969 C 80.847656 30.96875 80.546875 30.640625 80.25 30.308594 C 79.949219 29.96875 79.652344 29.621094 79.367188 29.265625 C 79.191406 29.015625 79.070312 28.742188 79 28.445312 C 78.929688 28.148438 78.914062 27.851562 78.953125 27.546875 C 78.992188 27.246094 79.082031 26.960938 79.230469 26.691406 C 79.375 26.425781 79.5625 26.191406 79.792969 25.992188 C 80.023438 25.792969 80.285156 25.644531 80.570312 25.542969 C 80.859375 25.441406 81.15625 25.394531 81.460938 25.402344 C 81.765625 25.410156 82.058594 25.46875 82.339844 25.585938 C 82.621094 25.703125 82.871094 25.867188 83.09375 26.074219 Z M 83.152344 26.132812 " fill-opacity="1" fill-rule="nonzero"/><path fill="#ff8b7b" d="M 95.453125 27.179688 L 97.894531 27.300781 L 97.101562 24.007812 C 97.101562 24.007812 94.828125 24.175781 94.464844 25.34375 C 94.425781 25.476562 94.433594 25.609375 94.488281 25.738281 L 94.9375 26.816406 C 95.03125 27.046875 95.203125 27.167969 95.453125 27.179688 Z M 95.453125 27.179688 " fill-opacity="1" fill-rule="nonzero"/><path fill="#ff8b7b" d="M 100.074219 25.347656 L 99.601562 24.25 C 99.507812 24.03125 99.355469 23.867188 99.140625 23.761719 C 98.925781 23.652344 98.703125 23.628906 98.46875 23.683594 L 97.097656 24.023438 L 97.890625 27.3125 L 99.535156 26.648438 C 99.792969 26.546875 99.976562 26.367188 100.082031 26.113281 C 100.1875 25.855469 100.1875 25.601562 100.074219 25.347656 Z M 100.074219 25.347656 " fill-opacity="1" fill-rule="nonzero"/><path fill="#263238" d="M 77.375 72.746094 C 74.78125 61.335938 73.175781 47.582031 73.175781 47.582031 L 83.8125 47.410156 C 83.8125 47.410156 83.664062 65.949219 83.6875 73.710938 C 83.714844 81.789062 84.273438 99.558594 84.273438 99.558594 L 81.046875 99.558594 C 81.046875 99.558594 76.882812 82.726562 77.375 72.746094 Z M 77.375 72.746094 " fill-opacity="1" fill-rule="nonzero"/><path fill="#000000" d="M 76.546875 57.003906 L 74.863281 59.5 C 75.367188 62.613281 75.960938 66.042969 76.652344 69.40625 C 76.945312 64.238281 76.894531 58.238281 76.546875 57.003906 Z M 76.546875 57.003906 " fill-opacity="1" fill-rule="nonzero"/><path fill="#263238" d="M 88.578125 101.140625 C 88.578125 101.140625 84.132812 100.09375 83.800781 99.386719 L 81.332031 99.386719 L 81.347656 102 L 82.871094 102 L 83.105469 101.757812 L 83.492188 102 C 84.726562 102 88.003906 101.953125 88.78125 101.675781 C 88.8125 101.457031 88.746094 101.28125 88.578125 101.140625 Z M 67.480469 72.425781 C 68.714844 60.949219 68.675781 53.285156 70.175781 47.628906 L 79.859375 47.484375 C 79.859375 47.484375 75.824219 65.683594 73.953125 73.257812 C 72.082031 80.832031 68.875 99.550781 68.875 99.550781 L 65.886719 99.550781 C 65.886719 99.550781 64.945312 81.296875 67.480469 72.425781 Z M 67.480469 72.425781 " fill-opacity="1" fill-rule="nonzero"/><path fill="#e0e0e0" d="M 69.40625 49.863281 C 69.191406 51.234375 68.429688 59.34375 67.640625 62.300781 C 74.097656 65.164062 83.96875 64.035156 84.273438 62.179688 C 84.183594 58.734375 84 49.863281 84 49.863281 Z M 69.40625 49.863281 " fill-opacity="1" fill-rule="nonzero"/><path fill="#000000" d="M 69.765625 51.371094 C 70.21875 52.101562 70.757812 52.765625 71.386719 53.355469 C 71.386719 53.355469 69.992188 53.109375 69.765625 51.371094 Z M 82.746094 53.28125 C 83.117188 52.726562 83.414062 52.136719 83.640625 51.507812 C 83.640625 51.507812 83.703125 52.90625 82.746094 53.28125 Z M 69.828125 52.402344 C 69.976562 52.953125 70.195312 53.480469 70.480469 53.972656 C 70.214844 53.808594 70.019531 53.582031 69.898438 53.292969 C 69.777344 53.003906 69.753906 52.707031 69.828125 52.402344 Z M 69.828125 52.402344 " fill-opacity="0.098" fill-rule="nonzero"/><path fill="#263238" d="M 71.660156 101.140625 C 71.660156 101.140625 68.890625 100.09375 68.570312 99.386719 L 66.101562 99.386719 L 66.054688 102 L 68.074219 102 L 68.3125 101.757812 L 68.695312 102 C 69.929688 102 71.066406 101.953125 71.851562 101.675781 C 71.890625 101.460938 71.828125 101.28125 71.660156 101.140625 Z M 69.816406 24.738281 C 73.242188 24.3125 78.125 24.355469 81.402344 24.917969 C 81.8125 24.992188 82.199219 25.128906 82.566406 25.324219 C 82.933594 25.519531 83.261719 25.769531 83.550781 26.066406 C 83.839844 26.367188 84.074219 26.703125 84.257812 27.078125 C 84.441406 27.453125 84.5625 27.84375 84.621094 28.253906 C 85.308594 33.207031 84.71875 41.851562 84.277344 50.558594 C 76.792969 53.117188 68.898438 50.523438 68.898438 50.523438 C 68.621094 48.769531 69.238281 43.011719 69.648438 39.941406 C 69.03125 36.769531 67.730469 33.136719 66.855469 28.921875 C 66.804688 28.6875 66.777344 28.449219 66.773438 28.207031 C 66.769531 27.964844 66.792969 27.726562 66.839844 27.488281 C 66.886719 27.25 66.960938 27.023438 67.054688 26.800781 C 67.152344 26.578125 67.269531 26.367188 67.40625 26.171875 C 67.546875 25.972656 67.707031 25.792969 67.882812 25.628906 C 68.0625 25.464844 68.253906 25.324219 68.460938 25.199219 C 68.667969 25.074219 68.886719 24.976562 69.117188 24.898438 C 69.34375 24.820312 69.578125 24.765625 69.816406 24.738281 Z M 69.816406 24.738281 " fill-opacity="1" fill-rule="nonzero"/><path fill="#ffffff" d="M 69.816406 24.738281 C 73.242188 24.3125 78.125 24.355469 81.402344 24.917969 C 81.8125 24.992188 82.199219 25.128906 82.566406 25.324219 C 82.933594 25.519531 83.261719 25.769531 83.550781 26.066406 C 83.839844 26.367188 84.074219 26.703125 84.257812 27.078125 C 84.441406 27.453125 84.5625 27.84375 84.621094 28.253906 C 85.308594 33.207031 84.71875 41.851562 84.277344 50.558594 C 76.792969 53.117188 68.898438 50.523438 68.898438 50.523438 C 68.621094 48.769531 69.238281 43.011719 69.648438 39.941406 C 69.03125 36.769531 67.730469 33.136719 66.855469 28.921875 C 66.804688 28.6875 66.777344 28.449219 66.773438 28.207031 C 66.769531 27.964844 66.792969 27.726562 66.839844 27.488281 C 66.886719 27.25 66.960938 27.023438 67.054688 26.800781 C 67.152344 26.578125 67.269531 26.367188 67.40625 26.171875 C 67.546875 25.972656 67.707031 25.792969 67.882812 25.628906 C 68.0625 25.464844 68.253906 25.324219 68.460938 25.199219 C 68.667969 25.074219 68.886719 24.976562 69.117188 24.898438 C 69.34375 24.820312 69.578125 24.765625 69.816406 24.738281 Z M 69.816406 24.738281 " fill-opacity="0.098" fill-rule="nonzero"/><path fill="#ff8b7b" d="M 73.203125 18.203125 L 77.097656 21.398438 C 76.59375 22.738281 76.433594 24.140625 78.632812 24.667969 C 79.183594 25.394531 78.359375 26.671875 77.382812 27.167969 C 75.074219 26.640625 73.746094 26.019531 72.847656 24.789062 C 73.128906 23.824219 73.582031 20.1875 73.203125 18.203125 Z M 73.203125 18.203125 " fill-opacity="1" fill-rule="nonzero"/><path fill="#000000" d="M 74.828125 19.535156 L 77.097656 21.394531 C 76.972656 21.707031 76.882812 22.027344 76.824219 22.355469 C 75.945312 22.417969 74.722656 21.53125 74.667969 20.726562 C 74.644531 20.320312 74.699219 19.921875 74.828125 19.535156 Z M 74.828125 19.535156 " fill-opacity="0.2" fill-rule="nonzero"/><path fill="#ff8b7b" d="M 72.644531 16.027344 C 73 18.46875 73.082031 19.917969 74.429688 21.0625 C 76.457031 22.789062 79.394531 21.382812 79.78125 18.871094 C 80.121094 16.613281 79.484375 12.996094 76.996094 12.242188 C 76.71875 12.15625 76.4375 12.109375 76.152344 12.097656 C 75.863281 12.082031 75.578125 12.109375 75.296875 12.167969 C 75.011719 12.226562 74.742188 12.324219 74.484375 12.453125 C 74.226562 12.582031 73.988281 12.738281 73.773438 12.929688 C 73.554688 13.117188 73.363281 13.332031 73.199219 13.570312 C 73.039062 13.808594 72.90625 14.0625 72.808594 14.332031 C 72.710938 14.601562 72.648438 14.882812 72.617188 15.167969 C 72.589844 15.457031 72.601562 15.742188 72.644531 16.027344 Z M 72.644531 16.027344 " fill-opacity="1" fill-rule="nonzero"/><path fill="#263238" d="M 72.621094 17.15625 C 72.878906 17.433594 73.191406 17.617188 73.558594 17.710938 C 73.921875 17.804688 74.285156 17.792969 74.644531 17.671875 C 74.058594 17.078125 74.628906 14.902344 74.039062 14.015625 C 75.175781 14.238281 79.597656 14.882812 80.019531 13.347656 C 80.476562 11.703125 78.648438 10.390625 77.621094 10.265625 C 77.921875 10.953125 77.894531 11.449219 76.773438 11.226562 C 75.648438 11.003906 71.015625 9.933594 71.527344 12.105469 C 70.035156 12.105469 69.933594 14.277344 71.023438 15.316406 C 71.625 15.871094 72.15625 16.484375 72.625 17.15625 Z M 72.621094 17.15625 " fill-opacity="1" fill-rule="nonzero"/><path fill="#263238" d="M 71.800781 12 C 70.90625 11.78125 71.1875 10.957031 71.386719 10.871094 C 70.550781 11.074219 70.246094 11.898438 71.253906 12.277344 C 72.265625 12.65625 71.800781 12 71.800781 12 Z M 71.800781 12 " fill-opacity="1" fill-rule="nonzero"/><path fill="#ff8b7b" d="M 71.957031 17.527344 C 72.132812 18.089844 72.480469 18.507812 73.003906 18.78125 C 73.675781 19.121094 74.164062 18.558594 74.101562 17.851562 C 74.050781 17.210938 73.640625 16.265625 72.90625 16.207031 C 72.742188 16.199219 72.585938 16.230469 72.4375 16.300781 C 72.289062 16.371094 72.167969 16.476562 72.070312 16.609375 C 71.976562 16.742188 71.917969 16.890625 71.898438 17.054688 C 71.878906 17.214844 71.898438 17.375 71.957031 17.527344 Z M 71.957031 17.527344 " fill-opacity="1" fill-rule="nonzero"/><path fill="#263238" d="M 76.074219 16.113281 C 76.09375 16.316406 76.210938 16.46875 76.347656 16.457031 C 76.488281 16.445312 76.574219 16.269531 76.558594 16.074219 C 76.542969 15.875 76.421875 15.71875 76.285156 15.730469 C 76.148438 15.742188 76.058594 15.914062 76.074219 16.113281 Z M 78.464844 16.058594 C 78.480469 16.257812 78.601562 16.410156 78.742188 16.398438 C 78.878906 16.382812 78.960938 16.214844 78.945312 16.011719 C 78.929688 15.8125 78.808594 15.664062 78.671875 15.671875 C 78.535156 15.683594 78.449219 15.855469 78.464844 16.058594 Z M 78.464844 16.058594 " fill-opacity="1" fill-rule="nonzero"/><path fill="#ff5652" d="M 77.980469 16.324219 C 78.269531 16.917969 78.636719 17.460938 79.078125 17.949219 C 78.75 18.3125 78.136719 18.222656 78.136719 18.222656 Z M 77.980469 16.324219 " fill-opacity="1" fill-rule="nonzero"/><path fill="#263238" d="M 75.703125 15.480469 C 75.6875 15.484375 75.667969 15.484375 75.648438 15.480469 C 75.570312 15.449219 75.550781 15.398438 75.582031 15.324219 C 75.722656 14.945312 75.988281 14.703125 76.378906 14.597656 C 76.457031 14.582031 76.503906 14.609375 76.519531 14.6875 C 76.535156 14.765625 76.503906 14.8125 76.425781 14.828125 C 76.117188 14.914062 75.90625 15.109375 75.796875 15.414062 C 75.789062 15.429688 75.777344 15.445312 75.761719 15.457031 C 75.742188 15.46875 75.726562 15.476562 75.703125 15.480469 Z M 79.851562 15.160156 C 79.808594 15.160156 79.777344 15.144531 79.753906 15.105469 C 79.597656 14.832031 79.359375 14.675781 79.042969 14.644531 C 78.992188 14.640625 78.957031 14.617188 78.9375 14.566406 C 78.933594 14.554688 78.929688 14.539062 78.929688 14.523438 C 78.933594 14.441406 78.972656 14.402344 79.054688 14.40625 C 79.453125 14.441406 79.753906 14.632812 79.957031 14.980469 C 79.972656 15.011719 79.976562 15.039062 79.972656 15.070312 C 79.964844 15.101562 79.945312 15.125 79.917969 15.144531 C 79.898438 15.15625 79.878906 15.164062 79.851562 15.160156 Z M 79.851562 15.160156 " fill-opacity="1" fill-rule="nonzero"/><path fill="#e0e0e0" d="M 72.847656 24.789062 C 72.847656 24.789062 76.84375 30.859375 78.363281 35.144531 C 79.859375 30.117188 80.03125 26.09375 78.636719 24.667969 C 78.1875 25.238281 76.378906 26.003906 72.847656 24.789062 Z M 71.484375 29.277344 L 71.097656 30.371094 L 70.714844 31.511719 C 70.464844 32.265625 70.230469 33.023438 70.011719 33.785156 C 69.902344 34.160156 69.804688 34.53125 69.71875 34.898438 C 69.628906 35.265625 69.542969 35.632812 69.484375 35.980469 C 69.421875 36.328125 69.378906 36.664062 69.347656 36.964844 C 69.332031 37.199219 69.332031 37.429688 69.347656 37.660156 L 69.203125 37.261719 C 69.089844 37.042969 68.972656 36.984375 68.964844 36.984375 C 68.960938 36.984375 69.003906 37.039062 69.089844 37.101562 C 69.34375 37.25 69.617188 37.371094 69.898438 37.460938 C 70.625 37.707031 71.371094 37.902344 72.125 38.050781 C 72.929688 38.207031 73.757812 38.324219 74.59375 38.460938 C 75.429688 38.597656 76.292969 38.695312 77.121094 38.8125 L 77.160156 38.8125 C 77.457031 38.855469 77.703125 38.992188 77.902344 39.214844 C 78.101562 39.441406 78.207031 39.703125 78.214844 40.003906 C 78.222656 40.304688 78.132812 40.574219 77.945312 40.808594 C 77.757812 41.042969 77.515625 41.191406 77.222656 41.25 C 76.328125 41.417969 75.425781 41.542969 74.519531 41.621094 C 73.609375 41.707031 72.695312 41.746094 71.777344 41.738281 C 70.800781 41.738281 69.832031 41.652344 68.871094 41.484375 C 68.308594 41.378906 67.757812 41.21875 67.226562 41 C 66.871094 40.855469 66.542969 40.664062 66.234375 40.433594 C 65.777344 40.097656 65.421875 39.675781 65.164062 39.167969 C 65.117188 39.074219 65.082031 38.976562 65.054688 38.878906 L 65.023438 38.765625 C 64.863281 38.164062 64.773438 37.554688 64.761719 36.9375 C 64.75 36.421875 64.769531 35.90625 64.820312 35.394531 C 64.90625 34.457031 65.058594 33.527344 65.273438 32.609375 C 65.46875 31.730469 65.707031 30.859375 65.980469 30 C 66.25 29.136719 66.558594 28.289062 66.902344 27.457031 C 67.027344 27.164062 67.203125 26.902344 67.425781 26.671875 C 67.652344 26.445312 67.914062 26.269531 68.207031 26.144531 C 68.503906 26.015625 68.808594 25.949219 69.128906 25.945312 C 69.449219 25.9375 69.757812 25.992188 70.058594 26.105469 C 70.359375 26.21875 70.625 26.386719 70.859375 26.605469 C 71.09375 26.820312 71.277344 27.074219 71.414062 27.367188 C 71.550781 27.65625 71.625 27.960938 71.644531 28.28125 C 71.660156 28.601562 71.617188 28.914062 71.511719 29.214844 L 71.484375 29.273438 Z M 71.484375 29.277344 " fill-opacity="1" fill-rule="nonzero"/><path fill="#ff8b7b" d="M 77.507812 39.164062 L 79.933594 39.46875 L 78.59375 42.566406 C 78.59375 42.566406 76.382812 42.019531 76.222656 40.800781 C 76.207031 40.664062 76.238281 40.535156 76.3125 40.417969 L 76.9375 39.433594 C 77.070312 39.222656 77.261719 39.132812 77.507812 39.164062 Z M 81.75 41.761719 L 81.097656 42.769531 C 80.96875 42.972656 80.789062 43.105469 80.558594 43.171875 C 80.328125 43.242188 80.105469 43.226562 79.886719 43.132812 L 78.59375 42.566406 L 79.933594 39.46875 L 81.445312 40.402344 C 81.675781 40.546875 81.824219 40.75 81.882812 41.015625 C 81.941406 41.285156 81.898438 41.53125 81.75 41.761719 Z M 81.75 41.761719 " fill-opacity="1" fill-rule="nonzero"/><path fill="#fafafa" d="M 73.042969 23.847656 C 72.519531 23.929688 72.078125 24.167969 71.71875 24.558594 C 72.835938 26.050781 74.296875 27.03125 76.105469 27.492188 C 75.980469 27.074219 76.359375 25.847656 76.773438 25.410156 C 75.242188 25.183594 73.042969 23.847656 73.042969 23.847656 Z M 73.042969 23.847656 " fill-opacity="1" fill-rule="nonzero"/><path fill="#fafafa" d="M 77.253906 23.996094 C 77.78125 24.09375 78.265625 24.292969 78.703125 24.59375 C 78.703125 24.59375 80.242188 26.304688 78.429688 27.273438 C 78.554688 26.855469 77.609375 25.738281 76.761719 25.410156 C 78.289062 25.183594 77.253906 23.996094 77.253906 23.996094 Z M 77.253906 23.996094 " fill-opacity="1" fill-rule="nonzero"/><path fill="#8a1114" d="M 76.929688 26.386719 C 75.71875 25.734375 74.21875 25.03125 74.636719 26.167969 C 75.050781 27.308594 74.5 27.703125 75.042969 28.089844 C 75.585938 28.476562 76.691406 27.414062 77.054688 27.265625 C 77.417969 27.117188 76.929688 26.386719 76.929688 26.386719 Z M 77.789062 26.378906 C 78.714844 25.753906 79.871094 25.082031 79.664062 26.191406 C 79.457031 27.300781 79.96875 27.6875 79.566406 28.0625 C 79.164062 28.4375 78.125 27.390625 77.796875 27.242188 C 77.46875 27.09375 77.789062 26.378906 77.789062 26.378906 Z M 77.789062 26.378906 " fill-opacity="1" fill-rule="nonzero"/><path fill="#8a1114" d="M 76.765625 26.296875 C 77.039062 26.132812 77.710938 25.925781 78.042969 26.371094 C 78.371094 26.820312 78.265625 27.566406 77.808594 27.65625 C 77.449219 27.730469 77.148438 27.625 76.914062 27.34375 C 77.019531 27.175781 77.058594 26.992188 77.03125 26.792969 C 77.003906 26.597656 76.914062 26.429688 76.765625 26.296875 Z M 76.765625 26.296875 " fill-opacity="1" fill-rule="nonzero"/><path fill="#000000" d="M 69.042969 99.640625 L 65.714844 99.734375 L 65.539062 97.851562 L 69.402344 98.078125 Z M 84.390625 99.636719 L 80.800781 99.734375 L 80.402344 98.101562 L 84.414062 97.710938 Z M 84.390625 99.636719 " fill-opacity="1" fill-rule="nonzero"/><path fill="#ffffff" d="M 76.5625 38.527344 C 74.878906 38.027344 73.15625 37.730469 71.402344 37.636719 C 71.03125 37.65625 70.886719 46.082031 70.917969 49.53125 C 70.917969 49.996094 76.28125 49.902344 77.652344 49.691406 C 77.726562 48.730469 77.746094 41.703125 78.101562 39.507812 C 78.128906 39.332031 78.101562 39.164062 78.011719 39.007812 C 77.925781 38.851562 77.800781 38.738281 77.636719 38.667969 C 77.289062 38.53125 76.933594 38.480469 76.5625 38.527344 Z M 76.5625 38.527344 " fill-opacity="1" fill-rule="nonzero"/><path fill="#8a1114" d="M 104.636719 25.039062 L 89.414062 25.039062 L 89.414062 25.472656 L 104.636719 25.472656 Z M 104.320312 25.472656 L 89.730469 25.472656 L 90.292969 25.777344 L 103.761719 25.777344 Z M 104.320312 25.472656 " fill-opacity="1" fill-rule="nonzero"/><path fill="#000000" d="M 104.320312 25.472656 L 89.730469 25.472656 L 90.292969 25.777344 L 103.761719 25.777344 Z M 104.320312 25.472656 " fill-opacity="0.2" fill-rule="nonzero"/><path fill="#8a1114" d="M 97.652344 18.917969 C 97.652344 19.015625 97.632812 19.101562 97.59375 19.1875 C 97.554688 19.273438 97.496094 19.34375 97.425781 19.40625 C 97.351562 19.464844 97.269531 19.507812 97.179688 19.53125 C 97.089844 19.554688 96.996094 19.554688 96.90625 19.539062 C 96.628906 19.484375 96.464844 19.320312 96.410156 19.046875 C 96.355469 18.769531 96.441406 18.554688 96.675781 18.402344 C 96.882812 18.261719 97.097656 18.25 97.320312 18.367188 C 97.539062 18.484375 97.652344 18.667969 97.652344 18.917969 Z M 103.605469 23.03125 C 103.171875 21.691406 102.402344 20.585938 101.296875 19.71875 L 101.46875 19.5 C 102.617188 20.40625 103.417969 21.554688 103.871094 22.949219 Z M 100.347656 19.085938 C 100.039062 18.917969 99.71875 18.773438 99.390625 18.652344 L 99.480469 18.394531 C 99.824219 18.523438 100.15625 18.675781 100.476562 18.855469 Z M 100.347656 19.085938 " fill-opacity="1" fill-rule="nonzero"/><path fill="#8a1114" d="M 97.027344 18.917969 C 96.617188 18.917969 96.210938 18.960938 95.8125 19.039062 C 95.410156 19.121094 95.019531 19.238281 94.644531 19.394531 C 94.265625 19.550781 93.90625 19.742188 93.566406 19.96875 C 93.226562 20.195312 92.910156 20.453125 92.621094 20.742188 C 92.332031 21.03125 92.074219 21.347656 91.847656 21.6875 C 91.621094 22.027344 91.429688 22.386719 91.273438 22.761719 C 91.117188 23.140625 91 23.53125 90.917969 23.929688 C 90.839844 24.332031 90.796875 24.738281 90.796875 25.144531 L 103.253906 25.144531 C 103.253906 24.738281 103.210938 24.332031 103.132812 23.929688 C 103.054688 23.53125 102.933594 23.140625 102.777344 22.761719 C 102.621094 22.386719 102.429688 22.027344 102.203125 21.6875 C 101.976562 21.347656 101.71875 21.03125 101.429688 20.742188 C 101.140625 20.453125 100.824219 20.195312 100.484375 19.96875 C 100.144531 19.742188 99.785156 19.550781 99.410156 19.394531 C 99.03125 19.238281 98.640625 19.121094 98.242188 19.039062 C 97.839844 18.960938 97.433594 18.917969 97.027344 18.917969 Z M 97.027344 18.917969 " fill-opacity="1" fill-rule="nonzero"/><path fill="#ffffff" d="M 91.65625 24.589844 L 93.265625 24.589844 C 93.398438 24.585938 93.476562 24.519531 93.5 24.390625 C 93.824219 22.6875 94.839844 21.199219 96.457031 19.910156 C 96.542969 19.839844 96.566406 19.757812 96.523438 19.65625 C 96.480469 19.554688 96.40625 19.511719 96.296875 19.527344 C 95.683594 19.605469 95.101562 19.78125 94.546875 20.054688 C 93.992188 20.324219 93.496094 20.675781 93.054688 21.109375 C 92.617188 21.539062 92.253906 22.03125 91.976562 22.582031 C 91.695312 23.132812 91.511719 23.710938 91.417969 24.320312 C 91.410156 24.394531 91.429688 24.457031 91.476562 24.507812 C 91.523438 24.5625 91.585938 24.589844 91.65625 24.589844 Z M 91.65625 24.589844 " fill-opacity="0.298" fill-rule="nonzero"/><path fill="#263238" d="M 77.214844 18.9375 C 77.34375 18.941406 77.472656 18.9375 77.597656 18.917969 C 77.617188 18.914062 77.632812 18.902344 77.640625 18.890625 C 77.652344 18.875 77.65625 18.859375 77.652344 18.839844 C 77.640625 18.796875 77.613281 18.777344 77.570312 18.78125 C 76.957031 18.875 76.425781 18.707031 75.972656 18.285156 C 75.953125 18.261719 75.929688 18.257812 75.898438 18.269531 C 75.890625 18.273438 75.882812 18.277344 75.878906 18.285156 C 75.867188 18.296875 75.859375 18.3125 75.859375 18.332031 C 75.859375 18.347656 75.867188 18.367188 75.878906 18.378906 C 76.253906 18.734375 76.699219 18.921875 77.214844 18.9375 Z M 77.214844 18.9375 " fill-opacity="1" fill-rule="nonzero"/><g fill="#ffffff" fill-opacity="1"><g transform="translate(185.278363, 46.407253)"><g><path d="M 10.5 -6 C 10.5 -5.039062 10.414062 -4.175781 10.25 -3.40625 C 10.09375 -2.632812 9.832031 -1.976562 9.46875 -1.4375 C 9.113281 -0.894531 8.644531 -0.476562 8.0625 -0.1875 C 7.476562 0.101562 6.757812 0.25 5.90625 0.25 C 5.0625 0.25 4.347656 0.101562 3.765625 -0.1875 C 3.179688 -0.476562 2.707031 -0.894531 2.34375 -1.4375 C 1.976562 -1.976562 1.710938 -2.632812 1.546875 -3.40625 C 1.390625 -4.175781 1.3125 -5.039062 1.3125 -6 C 1.3125 -6.945312 1.390625 -7.804688 1.546875 -8.578125 C 1.710938 -9.347656 1.976562 -10.003906 2.34375 -10.546875 C 2.707031 -11.085938 3.179688 -11.503906 3.765625 -11.796875 C 4.347656 -12.097656 5.0625 -12.25 5.90625 -12.25 C 6.757812 -12.25 7.476562 -12.101562 8.0625 -11.8125 C 8.644531 -11.519531 9.113281 -11.101562 9.46875 -10.5625 C 9.832031 -10.019531 10.09375 -9.363281 10.25 -8.59375 C 10.414062 -7.820312 10.5 -6.957031 10.5 -6 Z M 9.6875 -6 C 9.6875 -6.882812 9.617188 -7.671875 9.484375 -8.359375 C 9.359375 -9.046875 9.144531 -9.625 8.84375 -10.09375 C 8.550781 -10.5625 8.160156 -10.914062 7.671875 -11.15625 C 7.191406 -11.40625 6.601562 -11.53125 5.90625 -11.53125 C 5.207031 -11.53125 4.617188 -11.410156 4.140625 -11.171875 C 3.660156 -10.929688 3.269531 -10.578125 2.96875 -10.109375 C 2.664062 -9.640625 2.445312 -9.0625 2.3125 -8.375 C 2.1875 -7.6875 2.125 -6.894531 2.125 -6 C 2.125 -5.125 2.1875 -4.34375 2.3125 -3.65625 C 2.445312 -2.96875 2.660156 -2.382812 2.953125 -1.90625 C 3.253906 -1.4375 3.644531 -1.078125 4.125 -0.828125 C 4.613281 -0.578125 5.207031 -0.453125 5.90625 -0.453125 C 6.601562 -0.453125 7.191406 -0.578125 7.671875 -0.828125 C 8.160156 -1.078125 8.550781 -1.4375 8.84375 -1.90625 C 9.144531 -2.382812 9.359375 -2.960938 9.484375 -3.640625 C 9.617188 -4.328125 9.6875 -5.113281 9.6875 -6 Z M 9.6875 -6 "/></g></g></g><g fill="#ffffff" fill-opacity="1"><g transform="translate(197.097189, 46.407253)"><g><path d="M 8.640625 0 L 5.5625 -5.25 L 2.609375 -5.25 L 2.609375 0 L 1.859375 0 L 1.859375 -12 L 4.953125 -12 C 5.597656 -12 6.160156 -11.9375 6.640625 -11.8125 C 7.128906 -11.695312 7.535156 -11.507812 7.859375 -11.25 C 8.191406 -10.988281 8.4375 -10.648438 8.59375 -10.234375 C 8.757812 -9.816406 8.84375 -9.3125 8.84375 -8.71875 C 8.84375 -8.207031 8.789062 -7.765625 8.6875 -7.390625 C 8.582031 -7.015625 8.421875 -6.691406 8.203125 -6.421875 C 7.992188 -6.148438 7.726562 -5.929688 7.40625 -5.765625 C 7.09375 -5.597656 6.722656 -5.46875 6.296875 -5.375 L 9.5625 0 Z M 8.03125 -8.734375 C 8.03125 -9.171875 7.976562 -9.550781 7.875 -9.875 C 7.78125 -10.207031 7.613281 -10.476562 7.375 -10.6875 C 7.132812 -10.90625 6.816406 -11.066406 6.421875 -11.171875 C 6.023438 -11.273438 5.53125 -11.328125 4.9375 -11.328125 L 2.609375 -11.328125 L 2.609375 -5.921875 L 4.9375 -5.921875 C 5.53125 -5.921875 6.023438 -5.972656 6.421875 -6.078125 C 6.816406 -6.179688 7.132812 -6.347656 7.375 -6.578125 C 7.613281 -6.804688 7.78125 -7.097656 7.875 -7.453125 C 7.976562 -7.804688 8.03125 -8.234375 8.03125 -8.734375 Z M 8.03125 -8.734375 "/></g></g></g><g fill="#ffffff" fill-opacity="1"><g transform="translate(207.408334, 46.407253)"><g><path d="M 9.703125 -6 C 9.703125 -4.832031 9.582031 -3.863281 9.34375 -3.09375 C 9.101562 -2.320312 8.75 -1.707031 8.28125 -1.25 C 7.820312 -0.789062 7.257812 -0.46875 6.59375 -0.28125 C 5.9375 -0.09375 5.1875 0 4.34375 0 L 1.765625 0 L 1.765625 -12 L 4.34375 -12 C 5.269531 -12 6.066406 -11.894531 6.734375 -11.6875 C 7.410156 -11.488281 7.96875 -11.15625 8.40625 -10.6875 C 8.84375 -10.21875 9.164062 -9.597656 9.375 -8.828125 C 9.59375 -8.066406 9.703125 -7.125 9.703125 -6 Z M 8.890625 -6.015625 C 8.890625 -6.960938 8.804688 -7.773438 8.640625 -8.453125 C 8.484375 -9.128906 8.222656 -9.675781 7.859375 -10.09375 C 7.492188 -10.519531 7.007812 -10.832031 6.40625 -11.03125 C 5.8125 -11.226562 5.082031 -11.328125 4.21875 -11.328125 L 2.5 -11.328125 L 2.5 -0.671875 L 4.21875 -0.671875 C 5.039062 -0.671875 5.742188 -0.757812 6.328125 -0.9375 C 6.921875 -1.125 7.40625 -1.425781 7.78125 -1.84375 C 8.164062 -2.257812 8.445312 -2.804688 8.625 -3.484375 C 8.800781 -4.160156 8.890625 -5.003906 8.890625 -6.015625 Z M 8.890625 -6.015625 "/></g></g></g><g fill="#ffffff" fill-opacity="1"><g transform="translate(218.429995, 46.407253)"><g><path d="M 1.859375 0 L 1.859375 -12 L 8.734375 -12 L 8.734375 -11.328125 L 2.609375 -11.328125 L 2.609375 -6.75 L 7.890625 -6.75 L 7.890625 -6.0625 L 2.609375 -6.0625 L 2.609375 -0.671875 L 8.734375 -0.671875 L 8.734375 0 Z M 1.859375 0 "/></g></g></g><g fill="#ffffff" fill-opacity="1"><g transform="translate(228.455201, 46.407253)"><g><path d="M 8.640625 0 L 5.5625 -5.25 L 2.609375 -5.25 L 2.609375 0 L 1.859375 0 L 1.859375 -12 L 4.953125 -12 C 5.597656 -12 6.160156 -11.9375 6.640625 -11.8125 C 7.128906 -11.695312 7.535156 -11.507812 7.859375 -11.25 C 8.191406 -10.988281 8.4375 -10.648438 8.59375 -10.234375 C 8.757812 -9.816406 8.84375 -9.3125 8.84375 -8.71875 C 8.84375 -8.207031 8.789062 -7.765625 8.6875 -7.390625 C 8.582031 -7.015625 8.421875 -6.691406 8.203125 -6.421875 C 7.992188 -6.148438 7.726562 -5.929688 7.40625 -5.765625 C 7.09375 -5.597656 6.722656 -5.46875 6.296875 -5.375 L 9.5625 0 Z M 8.03125 -8.734375 C 8.03125 -9.171875 7.976562 -9.550781 7.875 -9.875 C 7.78125 -10.207031 7.613281 -10.476562 7.375 -10.6875 C 7.132812 -10.90625 6.816406 -11.066406 6.421875 -11.171875 C 6.023438 -11.273438 5.53125 -11.328125 4.9375 -11.328125 L 2.609375 -11.328125 L 2.609375 -5.921875 L 4.9375 -5.921875 C 5.53125 -5.921875 6.023438 -5.972656 6.421875 -6.078125 C 6.816406 -6.179688 7.132812 -6.347656 7.375 -6.578125 C 7.613281 -6.804688 7.78125 -7.097656 7.875 -7.453125 C 7.976562 -7.804688 8.03125 -8.234375 8.03125 -8.734375 Z M 8.03125 -8.734375 "/></g></g></g><g fill="#ffffff" fill-opacity="1"><g transform="translate(144.892133, 65.89893)"><g><path d="M 7.890625 -3.9375 C 7.890625 -2.675781 7.570312 -1.6875 6.9375 -0.96875 C 6.300781 -0.25 5.421875 0.109375 4.296875 0.109375 C 3.140625 0.109375 2.242188 -0.242188 1.609375 -0.953125 C 0.984375 -1.660156 0.671875 -2.660156 0.671875 -3.953125 C 0.671875 -5.222656 0.984375 -6.207031 1.609375 -6.90625 C 2.242188 -7.613281 3.140625 -7.96875 4.296875 -7.96875 C 5.429688 -7.96875 6.3125 -7.609375 6.9375 -6.890625 C 7.570312 -6.179688 7.890625 -5.195312 7.890625 -3.9375 Z M 1.640625 -3.9375 C 1.640625 -2.875 1.863281 -2.066406 2.3125 -1.515625 C 2.769531 -0.960938 3.429688 -0.6875 4.296875 -0.6875 C 5.160156 -0.6875 5.8125 -0.960938 6.25 -1.515625 C 6.695312 -2.066406 6.921875 -2.875 6.921875 -3.9375 C 6.921875 -4.988281 6.703125 -5.785156 6.265625 -6.328125 C 5.828125 -6.878906 5.171875 -7.15625 4.296875 -7.15625 C 3.429688 -7.15625 2.769531 -6.878906 2.3125 -6.328125 C 1.863281 -5.785156 1.640625 -4.988281 1.640625 -3.9375 Z M 1.640625 -3.9375 "/></g></g></g><g fill="#ffffff" fill-opacity="1"><g transform="translate(153.452943, 65.89893)"><g/></g></g><g fill="#ffffff" fill-opacity="1"><g transform="translate(156.308335, 65.89893)"><g><path d="M 6.015625 0 L 5.03125 -2.5 L 1.890625 -2.5 L 0.921875 0 L 0 0 L 3.109375 -7.890625 L 3.875 -7.890625 L 6.96875 0 Z M 4.75 -3.3125 L 3.84375 -5.75 C 3.71875 -6.0625 3.59375 -6.441406 3.46875 -6.890625 C 3.394531 -6.546875 3.285156 -6.164062 3.140625 -5.75 L 2.21875 -3.3125 Z M 4.75 -3.3125 "/></g></g></g><g fill="#ffffff" fill-opacity="1"><g transform="translate(163.264329, 65.89893)"><g><path d="M 3.6875 0.109375 C 3.300781 0.109375 2.945312 0.0390625 2.625 -0.09375 C 2.3125 -0.238281 2.050781 -0.457031 1.84375 -0.75 L 1.765625 -0.75 C 1.816406 -0.40625 1.84375 -0.0820312 1.84375 0.21875 L 1.84375 2.640625 L 0.953125 2.640625 L 0.953125 -5.890625 L 1.671875 -5.890625 L 1.796875 -5.078125 L 1.84375 -5.078125 C 2.070312 -5.398438 2.335938 -5.632812 2.640625 -5.78125 C 2.941406 -5.925781 3.289062 -6 3.6875 -6 C 4.46875 -6 5.066406 -5.726562 5.484375 -5.1875 C 5.910156 -4.65625 6.125 -3.910156 6.125 -2.953125 C 6.125 -1.984375 5.90625 -1.226562 5.46875 -0.6875 C 5.039062 -0.15625 4.445312 0.109375 3.6875 0.109375 Z M 3.5625 -5.234375 C 2.957031 -5.234375 2.519531 -5.066406 2.25 -4.734375 C 1.976562 -4.398438 1.84375 -3.867188 1.84375 -3.140625 L 1.84375 -2.953125 C 1.84375 -2.117188 1.976562 -1.523438 2.25 -1.171875 C 2.53125 -0.816406 2.972656 -0.640625 3.578125 -0.640625 C 4.085938 -0.640625 4.484375 -0.84375 4.765625 -1.25 C 5.054688 -1.664062 5.203125 -2.234375 5.203125 -2.953125 C 5.203125 -3.691406 5.054688 -4.253906 4.765625 -4.640625 C 4.484375 -5.035156 4.082031 -5.234375 3.5625 -5.234375 Z M 3.5625 -5.234375 "/></g></g></g><g fill="#ffffff" fill-opacity="1"><g transform="translate(170.000264, 65.89893)"><g><path d="M 3.6875 0.109375 C 3.300781 0.109375 2.945312 0.0390625 2.625 -0.09375 C 2.3125 -0.238281 2.050781 -0.457031 1.84375 -0.75 L 1.765625 -0.75 C 1.816406 -0.40625 1.84375 -0.0820312 1.84375 0.21875 L 1.84375 2.640625 L 0.953125 2.640625 L 0.953125 -5.890625 L 1.671875 -5.890625 L 1.796875 -5.078125 L 1.84375 -5.078125 C 2.070312 -5.398438 2.335938 -5.632812 2.640625 -5.78125 C 2.941406 -5.925781 3.289062 -6 3.6875 -6 C 4.46875 -6 5.066406 -5.726562 5.484375 -5.1875 C 5.910156 -4.65625 6.125 -3.910156 6.125 -2.953125 C 6.125 -1.984375 5.90625 -1.226562 5.46875 -0.6875 C 5.039062 -0.15625 4.445312 0.109375 3.6875 0.109375 Z M 3.5625 -5.234375 C 2.957031 -5.234375 2.519531 -5.066406 2.25 -4.734375 C 1.976562 -4.398438 1.84375 -3.867188 1.84375 -3.140625 L 1.84375 -2.953125 C 1.84375 -2.117188 1.976562 -1.523438 2.25 -1.171875 C 2.53125 -0.816406 2.972656 -0.640625 3.578125 -0.640625 C 4.085938 -0.640625 4.484375 -0.84375 4.765625 -1.25 C 5.054688 -1.664062 5.203125 -2.234375 5.203125 -2.953125 C 5.203125 -3.691406 5.054688 -4.253906 4.765625 -4.640625 C 4.484375 -5.035156 4.082031 -5.234375 3.5625 -5.234375 Z M 3.5625 -5.234375 "/></g></g></g><g fill="#ffffff" fill-opacity="1"><g transform="translate(176.736198, 65.89893)"><g/></g></g><g fill="#ffffff" fill-opacity="1"><g transform="translate(179.591591, 65.89893)"><g><path d="M 4.953125 -0.796875 L 4.90625 -0.796875 C 4.488281 -0.191406 3.875 0.109375 3.0625 0.109375 C 2.289062 0.109375 1.691406 -0.148438 1.265625 -0.671875 C 0.835938 -1.203125 0.625 -1.953125 0.625 -2.921875 C 0.625 -3.898438 0.835938 -4.65625 1.265625 -5.1875 C 1.691406 -5.726562 2.289062 -6 3.0625 -6 C 3.851562 -6 4.460938 -5.707031 4.890625 -5.125 L 4.96875 -5.125 L 4.921875 -5.546875 L 4.90625 -5.96875 L 4.90625 -8.359375 L 5.796875 -8.359375 L 5.796875 0 L 5.078125 0 Z M 3.171875 -0.640625 C 3.773438 -0.640625 4.210938 -0.804688 4.484375 -1.140625 C 4.765625 -1.472656 4.90625 -2.003906 4.90625 -2.734375 L 4.90625 -2.921875 C 4.90625 -3.753906 4.765625 -4.347656 4.484375 -4.703125 C 4.210938 -5.066406 3.769531 -5.25 3.15625 -5.25 C 2.632812 -5.25 2.234375 -5.046875 1.953125 -4.640625 C 1.679688 -4.234375 1.546875 -3.660156 1.546875 -2.921875 C 1.546875 -2.160156 1.679688 -1.585938 1.953125 -1.203125 C 2.234375 -0.828125 2.640625 -0.640625 3.171875 -0.640625 Z M 3.171875 -0.640625 "/></g></g></g><g fill="#ffffff" fill-opacity="1"><g transform="translate(186.327526, 65.89893)"><g><path d="M 6.03125 -2.953125 C 6.03125 -1.992188 5.785156 -1.242188 5.296875 -0.703125 C 4.816406 -0.160156 4.148438 0.109375 3.296875 0.109375 C 2.773438 0.109375 2.304688 -0.015625 1.890625 -0.265625 C 1.484375 -0.515625 1.171875 -0.867188 0.953125 -1.328125 C 0.734375 -1.785156 0.625 -2.328125 0.625 -2.953125 C 0.625 -3.910156 0.863281 -4.65625 1.34375 -5.1875 C 1.820312 -5.726562 2.484375 -6 3.328125 -6 C 4.160156 -6 4.816406 -5.722656 5.296875 -5.171875 C 5.785156 -4.617188 6.03125 -3.878906 6.03125 -2.953125 Z M 1.546875 -2.953125 C 1.546875 -2.203125 1.691406 -1.628906 1.984375 -1.234375 C 2.285156 -0.835938 2.726562 -0.640625 3.3125 -0.640625 C 3.894531 -0.640625 4.335938 -0.832031 4.640625 -1.21875 C 4.953125 -1.613281 5.109375 -2.191406 5.109375 -2.953125 C 5.109375 -3.703125 4.953125 -4.269531 4.640625 -4.65625 C 4.335938 -5.039062 3.894531 -5.234375 3.3125 -5.234375 C 2.726562 -5.234375 2.285156 -5.039062 1.984375 -4.65625 C 1.691406 -4.28125 1.546875 -3.710938 1.546875 -2.953125 Z M 1.546875 -2.953125 "/></g></g></g><g fill="#ffffff" fill-opacity="1"><g transform="translate(192.966849, 65.89893)"><g/></g></g><g fill="#ffffff" fill-opacity="1"><g transform="translate(195.822242, 65.89893)"><g><path d="M 4.53125 -4.109375 L 7.203125 -4.109375 L 7.203125 -0.296875 C 6.785156 -0.160156 6.363281 -0.0625 5.9375 0 C 5.507812 0.0703125 5.007812 0.109375 4.4375 0.109375 C 3.25 0.109375 2.320312 -0.242188 1.65625 -0.953125 C 1 -1.660156 0.671875 -2.648438 0.671875 -3.921875 C 0.671875 -4.742188 0.832031 -5.460938 1.15625 -6.078125 C 1.488281 -6.691406 1.960938 -7.160156 2.578125 -7.484375 C 3.191406 -7.804688 3.914062 -7.96875 4.75 -7.96875 C 5.582031 -7.96875 6.359375 -7.8125 7.078125 -7.5 L 6.734375 -6.703125 C 6.023438 -7.003906 5.34375 -7.15625 4.6875 -7.15625 C 3.726562 -7.15625 2.976562 -6.867188 2.4375 -6.296875 C 1.90625 -5.722656 1.640625 -4.929688 1.640625 -3.921875 C 1.640625 -2.867188 1.894531 -2.066406 2.40625 -1.515625 C 2.925781 -0.960938 3.6875 -0.6875 4.6875 -0.6875 C 5.238281 -0.6875 5.773438 -0.75 6.296875 -0.875 L 6.296875 -3.296875 L 4.53125 -3.296875 Z M 4.53125 -4.109375 "/></g></g></g><g fill="#ffffff" fill-opacity="1"><g transform="translate(203.824854, 65.89893)"><g><path d="M 4.5625 0 L 4.390625 -0.84375 L 4.34375 -0.84375 C 4.050781 -0.46875 3.757812 -0.210938 3.46875 -0.078125 C 3.175781 0.046875 2.8125 0.109375 2.375 0.109375 C 1.789062 0.109375 1.332031 -0.0390625 1 -0.34375 C 0.664062 -0.644531 0.5 -1.070312 0.5 -1.625 C 0.5 -2.8125 1.453125 -3.4375 3.359375 -3.5 L 4.359375 -3.53125 L 4.359375 -3.890625 C 4.359375 -4.359375 4.257812 -4.703125 4.0625 -4.921875 C 3.863281 -5.140625 3.546875 -5.25 3.109375 -5.25 C 2.617188 -5.25 2.0625 -5.097656 1.4375 -4.796875 L 1.171875 -5.484375 C 1.453125 -5.640625 1.765625 -5.757812 2.109375 -5.84375 C 2.460938 -5.9375 2.8125 -5.984375 3.15625 -5.984375 C 3.863281 -5.984375 4.382812 -5.828125 4.71875 -5.515625 C 5.050781 -5.203125 5.21875 -4.703125 5.21875 -4.015625 L 5.21875 0 Z M 2.546875 -0.625 C 3.109375 -0.625 3.546875 -0.773438 3.859375 -1.078125 C 4.171875 -1.390625 4.328125 -1.816406 4.328125 -2.359375 L 4.328125 -2.890625 L 3.4375 -2.859375 C 2.726562 -2.828125 2.21875 -2.710938 1.90625 -2.515625 C 1.59375 -2.328125 1.4375 -2.023438 1.4375 -1.609375 C 1.4375 -1.296875 1.535156 -1.050781 1.734375 -0.875 C 1.929688 -0.707031 2.203125 -0.625 2.546875 -0.625 Z M 2.546875 -0.625 "/></g></g></g><g fill="#ffffff" fill-opacity="1"><g transform="translate(209.938185, 65.89893)"><g><path d="M 3.625 -6 C 3.882812 -6 4.117188 -5.976562 4.328125 -5.9375 L 4.21875 -5.109375 C 3.96875 -5.160156 3.75 -5.1875 3.5625 -5.1875 C 3.09375 -5.1875 2.6875 -4.988281 2.34375 -4.59375 C 2.007812 -4.207031 1.84375 -3.726562 1.84375 -3.15625 L 1.84375 0 L 0.953125 0 L 0.953125 -5.890625 L 1.6875 -5.890625 L 1.78125 -4.796875 L 1.828125 -4.796875 C 2.046875 -5.179688 2.304688 -5.476562 2.609375 -5.6875 C 2.921875 -5.894531 3.257812 -6 3.625 -6 Z M 3.625 -6 "/></g></g></g><g fill="#ffffff" fill-opacity="1"><g transform="translate(214.42523, 65.89893)"><g><path d="M 3.296875 0.109375 C 2.441406 0.109375 1.78125 -0.148438 1.3125 -0.671875 C 0.851562 -1.203125 0.625 -1.945312 0.625 -2.90625 C 0.625 -3.894531 0.859375 -4.65625 1.328125 -5.1875 C 1.804688 -5.726562 2.484375 -6 3.359375 -6 C 3.640625 -6 3.921875 -5.96875 4.203125 -5.90625 C 4.484375 -5.84375 4.707031 -5.769531 4.875 -5.6875 L 4.59375 -4.9375 C 4.394531 -5.007812 4.179688 -5.070312 3.953125 -5.125 C 3.722656 -5.175781 3.515625 -5.203125 3.328125 -5.203125 C 2.140625 -5.203125 1.546875 -4.441406 1.546875 -2.921875 C 1.546875 -2.191406 1.691406 -1.632812 1.984375 -1.25 C 2.273438 -0.863281 2.707031 -0.671875 3.28125 -0.671875 C 3.769531 -0.671875 4.269531 -0.773438 4.78125 -0.984375 L 4.78125 -0.203125 C 4.382812 0.00390625 3.890625 0.109375 3.296875 0.109375 Z M 4.09375 1.546875 C 4.09375 1.898438 3.953125 2.171875 3.671875 2.359375 C 3.398438 2.546875 3 2.640625 2.46875 2.640625 C 2.28125 2.640625 2.109375 2.625 1.953125 2.59375 L 1.953125 2.03125 C 2.109375 2.050781 2.289062 2.0625 2.5 2.0625 C 2.789062 2.0625 3.003906 2.023438 3.140625 1.953125 C 3.285156 1.890625 3.359375 1.757812 3.359375 1.5625 C 3.359375 1.40625 3.285156 1.28125 3.140625 1.1875 C 3.003906 1.09375 2.742188 1.015625 2.359375 0.953125 L 2.828125 0 L 3.421875 0 L 3.125 0.625 C 3.769531 0.757812 4.09375 1.066406 4.09375 1.546875 Z M 4.09375 1.546875 "/></g></g></g><g fill="#ffffff" fill-opacity="1"><g transform="translate(219.658327, 65.89893)"><g><path d="M 6.03125 -2.953125 C 6.03125 -1.992188 5.785156 -1.242188 5.296875 -0.703125 C 4.816406 -0.160156 4.148438 0.109375 3.296875 0.109375 C 2.773438 0.109375 2.304688 -0.015625 1.890625 -0.265625 C 1.484375 -0.515625 1.171875 -0.867188 0.953125 -1.328125 C 0.734375 -1.785156 0.625 -2.328125 0.625 -2.953125 C 0.625 -3.910156 0.863281 -4.65625 1.34375 -5.1875 C 1.820312 -5.726562 2.484375 -6 3.328125 -6 C 4.160156 -6 4.816406 -5.722656 5.296875 -5.171875 C 5.785156 -4.617188 6.03125 -3.878906 6.03125 -2.953125 Z M 1.546875 -2.953125 C 1.546875 -2.203125 1.691406 -1.628906 1.984375 -1.234375 C 2.285156 -0.835938 2.726562 -0.640625 3.3125 -0.640625 C 3.894531 -0.640625 4.335938 -0.832031 4.640625 -1.21875 C 4.953125 -1.613281 5.109375 -2.191406 5.109375 -2.953125 C 5.109375 -3.703125 4.953125 -4.269531 4.640625 -4.65625 C 4.335938 -5.039062 3.894531 -5.234375 3.3125 -5.234375 C 2.726562 -5.234375 2.285156 -5.039062 1.984375 -4.65625 C 1.691406 -4.28125 1.546875 -3.710938 1.546875 -2.953125 Z M 1.546875 -2.953125 "/></g></g></g><g fill="#ffffff" fill-opacity="1"><g transform="translate(226.297651, 65.89893)"><g><path d="M 8.453125 0 L 8.453125 -3.828125 C 8.453125 -4.296875 8.347656 -4.644531 8.140625 -4.875 C 7.941406 -5.113281 7.632812 -5.234375 7.21875 -5.234375 C 6.65625 -5.234375 6.242188 -5.070312 5.984375 -4.75 C 5.722656 -4.4375 5.59375 -3.945312 5.59375 -3.28125 L 5.59375 0 L 4.6875 0 L 4.6875 -3.828125 C 4.6875 -4.296875 4.585938 -4.644531 4.390625 -4.875 C 4.191406 -5.113281 3.878906 -5.234375 3.453125 -5.234375 C 2.890625 -5.234375 2.476562 -5.066406 2.21875 -4.734375 C 1.96875 -4.398438 1.84375 -3.851562 1.84375 -3.09375 L 1.84375 0 L 0.953125 0 L 0.953125 -5.890625 L 1.671875 -5.890625 L 1.8125 -5.078125 L 1.859375 -5.078125 C 2.023438 -5.367188 2.257812 -5.59375 2.5625 -5.75 C 2.875 -5.914062 3.21875 -6 3.59375 -6 C 4.519531 -6 5.125 -5.664062 5.40625 -5 L 5.453125 -5 C 5.617188 -5.300781 5.867188 -5.539062 6.203125 -5.71875 C 6.535156 -5.90625 6.914062 -6 7.34375 -6 C 8.007812 -6 8.507812 -5.828125 8.84375 -5.484375 C 9.175781 -5.140625 9.34375 -4.59375 9.34375 -3.84375 L 9.34375 0 Z M 8.453125 0 "/></g></g></g><g fill="#ffffff" fill-opacity="1"><g transform="translate(142.642134, 46.768624)"><g><path d="M 4.296875 0 L 1.609375 0 L 1.609375 -12.84375 L 8.96875 -12.84375 L 8.96875 -10.609375 L 4.296875 -10.609375 L 4.296875 -7.296875 L 8.65625 -7.296875 L 8.65625 -5.078125 L 4.296875 -5.078125 Z M 4.296875 0 "/></g></g><g transform="translate(152.516036, 46.768624)"><g><path d="M 9.46875 0 L 8.546875 -3.0625 L 3.859375 -3.0625 L 2.9375 0 L 0 0 L 4.53125 -12.890625 L 7.859375 -12.890625 L 12.40625 0 Z M 7.890625 -5.34375 C 7.035156 -8.113281 6.550781 -9.675781 6.4375 -10.03125 C 6.332031 -10.394531 6.253906 -10.679688 6.203125 -10.890625 C 6.015625 -10.148438 5.460938 -8.300781 4.546875 -5.34375 Z M 7.890625 -5.34375 "/></g></g><g transform="translate(164.928692, 46.768624)"><g><path d="M 9.1875 -3.5625 C 9.1875 -2.40625 8.769531 -1.492188 7.9375 -0.828125 C 7.101562 -0.160156 5.945312 0.171875 4.46875 0.171875 C 3.09375 0.171875 1.878906 -0.0820312 0.828125 -0.59375 L 0.828125 -3.125 C 1.691406 -2.738281 2.421875 -2.46875 3.015625 -2.3125 C 3.617188 -2.15625 4.171875 -2.078125 4.671875 -2.078125 C 5.265625 -2.078125 5.722656 -2.1875 6.046875 -2.40625 C 6.367188 -2.632812 6.53125 -2.976562 6.53125 -3.4375 C 6.53125 -3.6875 6.457031 -3.910156 6.3125 -4.109375 C 6.175781 -4.304688 5.96875 -4.492188 5.6875 -4.671875 C 5.414062 -4.847656 4.863281 -5.140625 4.03125 -5.546875 C 3.25 -5.910156 2.660156 -6.257812 2.265625 -6.59375 C 1.867188 -6.9375 1.550781 -7.332031 1.3125 -7.78125 C 1.082031 -8.238281 0.96875 -8.769531 0.96875 -9.375 C 0.96875 -10.507812 1.351562 -11.398438 2.125 -12.046875 C 2.894531 -12.691406 3.960938 -13.015625 5.328125 -13.015625 C 5.992188 -13.015625 6.628906 -12.9375 7.234375 -12.78125 C 7.835938 -12.625 8.46875 -12.40625 9.125 -12.125 L 8.25 -10 C 7.570312 -10.28125 7.007812 -10.472656 6.5625 -10.578125 C 6.113281 -10.691406 5.671875 -10.75 5.234375 -10.75 C 4.722656 -10.75 4.328125 -10.628906 4.046875 -10.390625 C 3.773438 -10.148438 3.640625 -9.835938 3.640625 -9.453125 C 3.640625 -9.210938 3.691406 -9.003906 3.796875 -8.828125 C 3.910156 -8.648438 4.085938 -8.476562 4.328125 -8.3125 C 4.578125 -8.144531 5.15625 -7.84375 6.0625 -7.40625 C 7.257812 -6.832031 8.078125 -6.257812 8.515625 -5.6875 C 8.960938 -5.113281 9.1875 -4.40625 9.1875 -3.5625 Z M 9.1875 -3.5625 "/></g></g><g transform="translate(174.837733, 46.768624)"><g><path d="M 6.5625 0 L 3.84375 0 L 3.84375 -10.578125 L 0.359375 -10.578125 L 0.359375 -12.84375 L 10.0625 -12.84375 L 10.0625 -10.578125 L 6.5625 -10.578125 Z M 6.5625 0 "/></g></g></g></svg>